<?xml version="1.0" standalone="no"?>
<!DOCTYPE svg PUBLIC "-//W3C//DTD SVG 20010904//EN"
 "http://www.w3.org/TR/2001/REC-SVG-20010904/DTD/svg10.dtd">
<svg version="1.0" xmlns="http://www.w3.org/2000/svg"
 width="422.000000pt" height="422.000000pt" viewBox="0 0 422.000000 422.000000"
 preserveAspectRatio="xMidYMid meet">
<metadata>
Created by potrace 1.11, written by Peter Selinger 2001-2013
</metadata>
<g transform="translate(0.000000,422.000000) scale(0.100000,-0.100000)"
fill="#000000" stroke="none">
<path d="M2020 4185 c-30 -18 -235 -136 -455 -260 -328 -186 -931 -529 -1003
-570 -9 -5 -67 -38 -127 -72 -61 -34 -123 -73 -140 -87 l-30 -24 -3 -546 c-2
-357 1 -553 8 -565 5 -11 115 -79 242 -152 128 -72 304 -172 391 -221 86 -50
157 -94 157 -98 0 -4 -7 -11 -15 -14 -9 -3 -175 -101 -370 -217 -358 -215
-375 -228 -375 -284 0 -56 18 -76 130 -137 44 -24 429 -244 1240 -705 282
-161 407 -227 435 -230 37 -5 58 5 245 111 113 64 212 121 220 126 8 5 32 19
54 31 21 11 201 113 400 226 198 114 377 215 396 226 19 11 60 33 90 50 30 17
66 38 80 47 14 9 30 19 35 21 48 19 309 176 325 196 19 25 20 41 20 567 0 494
-2 544 -17 566 -25 36 -27 37 -273 177 -124 70 -237 135 -251 143 -15 8 -70
40 -123 70 -53 30 -96 58 -96 62 0 3 52 37 116 75 64 37 130 76 147 87 279
164 449 271 462 289 8 12 15 38 15 59 0 47 -33 84 -110 126 -30 16 -181 101
-335 189 -154 88 -307 175 -340 193 -33 18 -77 44 -97 57 -21 12 -40 23 -42
23 -3 0 -31 15 -63 34 -70 41 -757 433 -793 452 -42 23 -90 16 -150 -21z m-12
-632 l-3 -377 -154 -88 c-85 -48 -155 -88 -156 -88 0 0 -106 -60 -234 -133
l-234 -134 -131 76 c-465 272 -517 304 -504 316 7 7 87 54 178 105 91 51 244
138 340 193 96 55 200 113 230 130 30 16 67 38 82 49 14 10 29 18 32 18 3 0
81 43 173 97 92 53 193 110 223 126 30 17 75 43 100 58 25 15 48 28 53 28 4 1
6 -169 5 -376z m372 289 c158 -90 141 -80 470 -267 446 -253 650 -369 705
-399 28 -15 56 -34 64 -41 13 -12 12 -15 -5 -22 -10 -4 -42 -21 -70 -39 -28
-18 -66 -41 -85 -52 -19 -11 -132 -79 -253 -150 l-219 -131 -46 26 c-25 14
-56 32 -68 39 -12 8 -39 23 -60 35 -35 20 -210 119 -314 178 -25 14 -98 55
-162 91 l-117 65 0 378 0 378 23 -12 c12 -7 74 -41 137 -77z m-219 -876 c24
-13 109 -61 189 -106 80 -46 170 -97 200 -114 30 -17 94 -53 142 -80 l87 -49
-182 -110 c-100 -61 -191 -115 -202 -121 -11 -6 -75 -44 -142 -84 -67 -40
-128 -75 -136 -78 -8 -3 -92 41 -188 97 -96 56 -245 144 -332 195 l-158 92 73
42 c40 24 89 51 108 63 49 28 87 49 150 84 30 17 118 67 195 112 77 44 143 81
146 81 3 0 26 -11 50 -24z m-1536 -126 c33 -19 69 -41 80 -47 11 -6 67 -40
125 -74 58 -34 122 -71 143 -82 20 -11 34 -24 30 -28 -10 -9 -499 -288 -519
-296 -12 -4 -14 42 -14 306 l0 312 48 -28 c26 -15 74 -43 107 -63z m692 -406
c15 -8 42 -23 58 -33 17 -10 139 -82 273 -161 133 -78 242 -145 242 -149 0 -4
-138 -89 -306 -189 l-307 -183 -316 180 c-174 98 -331 187 -348 198 -18 10
-33 20 -33 24 0 3 19 15 42 27 24 12 68 35 98 53 30 17 89 50 130 73 41 24
143 82 225 129 l150 85 32 -19 c18 -11 45 -27 60 -35z m1976 -110 c160 -91
303 -173 316 -181 l23 -15 -24 -12 c-13 -7 -55 -31 -94 -53 -67 -40 -389 -222
-487 -276 -26 -15 -58 -33 -70 -41 -21 -14 -32 -9 -167 71 -80 47 -158 93
-175 102 -16 9 -90 52 -164 96 l-133 78 43 26 c24 14 172 103 329 198 157 94
291 172 298 172 6 1 144 -74 305 -165z m-1148 -374 c14 -11 461 -273 521 -306
27 -15 50 -28 52 -29 4 -3 -79 -51 -375 -219 -262 -148 -253 -145 -323 -101
-19 12 -144 84 -277 160 -134 76 -243 140 -243 144 0 5 367 229 393 239 4 2
54 32 110 67 95 58 115 64 142 45z m1615 -351 c0 -192 -3 -348 -7 -346 -5 2
-35 20 -68 39 -33 20 -79 47 -101 59 -244 140 -432 255 -426 261 6 6 372 218
377 218 1 0 49 27 106 60 57 33 107 60 111 60 5 0 8 -158 8 -351z m-652 -216
c29 -18 54 -33 57 -33 3 0 28 -15 57 -32 29 -18 65 -40 80 -48 166 -94 316
-186 310 -192 -6 -6 -59 -36 -190 -109 -28 -16 -132 -75 -230 -131 -97 -55
-190 -109 -207 -118 -16 -9 -79 -45 -140 -80 -60 -34 -135 -76 -165 -93 -30
-17 -72 -41 -92 -54 -21 -13 -40 -23 -42 -23 -2 0 -50 -27 -106 -60 -56 -33
-103 -60 -105 -60 -2 0 -27 -14 -55 -30 -28 -17 -53 -30 -55 -30 -3 0 -5 179
-5 398 l0 398 43 22 c43 22 116 63 177 100 19 12 42 25 50 29 8 4 84 47 169
95 84 48 155 88 157 88 2 0 27 15 56 34 l53 34 65 -35 c36 -20 89 -51 118 -70z
m-1603 -38 c120 -69 220 -125 222 -125 2 0 20 -10 41 -23 20 -13 62 -37 92
-54 30 -17 76 -43 103 -58 l47 -27 0 -384 c0 -211 -3 -384 -6 -384 -5 0 -31
14 -159 88 -129 74 -500 285 -545 310 -97 54 -675 384 -678 387 -1 1 44 30
100 64 57 34 110 66 118 71 67 42 436 260 440 260 3 0 104 -56 225 -125z"/>
</g>
</svg>
